<svg id="Layer_1" data-name="Layer 1" xmlns="http://www.w3.org/2000/svg" viewBox="0 0 158 158">
  <g>
    <path d="M158,79A79,79,0,1,1,9.2,42,79.08,79.08,0,0,1,79,0,79,79,0,0,1,158,79Z" transform="translate(0)" style="fill: #fff"/>
    <g>
      <g>
        <rect x="64.25" y="19.37" width="55.57" height="99.91" transform="translate(-16.71 31.23) rotate(-17.68)" style="fill: #fff;stroke: #000;stroke-miterlimit: 10;stroke-width: 3px"/>
        <rect x="71.94" y="20.98" width="55.57" height="99.91" transform="translate(-9.72 16.17) rotate(-8.84)" style="fill: #fff;stroke: #000;stroke-miterlimit: 10;stroke-width: 3px"/>
        <path d="M123.89,101.47a2.94,2.94,0,0,1,1.87.68L115,32.87a3,3,0,0,1-5.59-1.38s0-.07,0-.11L78.49,36.19a3.05,3.05,0,0,1,.28,1.25,3,3,0,0,1-5.09,2.09l10.84,69.68a3,3,0,0,1,5.7,1.18s0,.06,0,.09l31-4.82a3.06,3.06,0,0,1-.26-1.22A3,3,0,0,1,123.89,101.47ZM99.74,85.31a14.37,14.37,0,1,1,14.37-14.37A14.37,14.37,0,0,1,99.74,85.31Z" transform="translate(0)" style="fill: #ccc"/>
        <circle cx="99.66" cy="70.94" r="19.05" style="fill: #39c"/>
        <path d="M114.11,22.12a3.54,3.54,0,0,0-3.54,3.42s0,.09,0,.13a3.54,3.54,0,0,0,6.68,1.64,3.47,3.47,0,0,0,.42-1.64A3.55,3.55,0,0,0,114.11,22.12Z" transform="translate(0)" style="fill: #39c"/>
        <path d="M128.83,107.74a3.51,3.51,0,0,0-2.24-.81,3.55,3.55,0,0,0-3.55,3.55,3.5,3.5,0,0,0,.32,1.45,3.55,3.55,0,1,0,5.47-4.19Z" transform="translate(0)" style="fill: #39c"/>
        <path d="M85.37,112.64a3.56,3.56,0,0,0-3.26,2.14,3.49,3.49,0,0,0-.29,1.41,3.55,3.55,0,0,0,7.09.11s0-.07,0-.11A3.55,3.55,0,0,0,85.37,112.64Z" transform="translate(0)" style="fill: #39c"/>
        <path d="M76.9,29.89a3.53,3.53,0,1,0,.34,1.49A3.56,3.56,0,0,0,76.9,29.89Z" transform="translate(0)" style="fill: #39c"/>
      </g>
      <g>
        <path d="M57.49,54.77,43.75,68s-7.5,2.49-5.62,30.28c0,0-1.56,14.36-5,19.36H29.07L23.14,129.2s25.92,13.11,34.35,13.42c0,0,5-3.74,5-12.8a2.5,2.5,0,0,1,1.85,1.55c.49,1.35,6.62-9.18,6.62-9.18s3.8-12.37,3.43-19.6c0,0-1.59-1,16.78-25.47,0,0,3.67-6.25-.61-10.66s-10,.49-10,.49L61.64,88.51" transform="translate(0)" style="fill: #fff;stroke: #000;stroke-miterlimit: 10;stroke-width: 3px"/>
        <path d="M29.07,117.65s23.3,1.81,31,8.24a6.06,6.06,0,0,1,2.41,3.93s-2.16-5.7-.25-7.89" transform="translate(0)" style="fill: #fff;stroke: #000;stroke-miterlimit: 10;stroke-width: 3px"/>
      </g>
    </g>
  </g>
</svg>
