<svg id="Layer_1" data-name="Layer 1" xmlns="http://www.w3.org/2000/svg" viewBox="0 0 88.38 101.4">
  <g>
    <g>
      <rect x="31.25" y="4.82" width="42.11" height="75.7" transform="translate(-8.57 19.58) rotate(-17.68)" style="fill: #fff;stroke: #000;stroke-miterlimit: 10;stroke-width: 3px"/>
      <rect x="37.07" y="6.04" width="42.11" height="75.7" transform="translate(-4.13 11.13) rotate(-8.84)" style="fill: #fff;stroke: #000;stroke-miterlimit: 10;stroke-width: 3px"/>
      <path d="M76.44,67a2.28,2.28,0,0,1,1.42.51L69.69,15.05a2.25,2.25,0,0,1-4.24-1s0-.06,0-.09L42,17.57A2.25,2.25,0,0,1,38.4,20.1l8.21,52.79a2.25,2.25,0,0,1,4.32.9s0,0,0,.06L74.39,70.2a2.17,2.17,0,0,1-.2-.92A2.25,2.25,0,0,1,76.44,67ZM58.14,54.79A10.89,10.89,0,1,1,69,43.9,10.9,10.9,0,0,1,58.14,54.79Z" transform="translate(1.92 1.67)" style="fill: #ccc"/>
      <circle cx="60" cy="45.57" r="14.43" style="fill: #39c"/>
      <path d="M69,6.9a2.68,2.68,0,0,0-2.68,2.59s0,.07,0,.1A2.69,2.69,0,1,0,69,6.9Z" transform="translate(1.92 1.67)" style="fill: #39c"/>
      <path d="M80.18,71.78a2.66,2.66,0,0,0-1.69-.62,2.69,2.69,0,0,0-2.69,2.69A2.73,2.73,0,0,0,76,75a2.69,2.69,0,0,0,5.14-1.11A2.64,2.64,0,0,0,80.18,71.78Z" transform="translate(1.92 1.67)" style="fill: #39c"/>
      <path d="M47.25,75.49a2.69,2.69,0,0,0,0,5.38,2.68,2.68,0,0,0,2.68-2.61s0-.05,0-.08A2.69,2.69,0,0,0,47.25,75.49Z" transform="translate(1.92 1.67)" style="fill: #39c"/>
      <path d="M40.83,12.79a2.68,2.68,0,1,0-4.34,3,2.65,2.65,0,0,0,1.91.8,2.67,2.67,0,0,0,2.43-3.82Z" transform="translate(1.92 1.67)" style="fill: #39c"/>
    </g>
    <g>
      <path d="M26.12,31.64l-10.4,10s-5.68,1.89-4.26,23c0,0-1.19,10.88-3.79,14.66H4.6L.1,88s19.64,9.93,26,10.17c0,0,3.79-2.84,3.79-9.7a1.89,1.89,0,0,1,1.4,1.18c.37,1,5-7,5-7s2.87-9.38,2.59-14.85c0,0-1.2-.75,12.72-19.31,0,0,2.78-4.73-.47-8.07s-7.61.37-7.61.37L29.27,57.2" transform="translate(1.92 1.67)" style="fill: #fff;stroke: #000;stroke-miterlimit: 10;stroke-width: 3px"/>
      <path d="M4.6,79.28s17.65,1.38,23.48,6.25a4.58,4.58,0,0,1,1.83,3s-1.64-4.32-.19-6" transform="translate(1.92 1.67)" style="fill: #fff;stroke: #000;stroke-miterlimit: 10;stroke-width: 3px"/>
    </g>
  </g>
</svg>
