<svg id="Layer_1" data-name="Layer 1" xmlns="http://www.w3.org/2000/svg" viewBox="0 0 158 158">
  <g>
    <path d="M158,79A79,79,0,1,1,9.2,42,79.08,79.08,0,0,1,79,0,79,79,0,0,1,158,79Z" style="fill: #fff"/>
    <g>
      <g>
        <path d="M108.38,142.83H28.9l1.49-16.25a1,1,0,0,1,0-.17l6-65.85v0l1.25-13.63H116.2l1.23,13.7,2.46,27.23,1.35,15,.56,6.25h0l1.56,17.34A15,15,0,0,1,108.38,142.83Z" style="fill: #fff"/>
        <path d="M124.75,141.75l-.1-1c-.72,1.25-1.24,2-1.3,2.1Z" style="fill: #fff"/>
      </g>
      <path d="M108.38,142.83H28.9c4.29,0,8.41-.21,12.38-.57,42.81-3.79,67.53-25.72,76.3-35.14a52.58,52.58,0,0,0,3.66-4.29h0l.56,6.26h0l1.56,17.34A15,15,0,0,1,108.38,142.83Z" style="fill: #ccc"/>
      <path d="M124.75,141.75l-.1-1c-.72,1.25-1.24,2-1.3,2.1Z" style="fill: #ccc"/>
      <path d="M108.38,142.83h-63a14.63,14.63,0,0,1-4.11-.57,15,15,0,0,1-10.89-15.68,1,1,0,0,1,0-.17l6-65.85v0a15,15,0,0,1,15-13.63h51a15,15,0,0,1,15,13.7l2.46,27.23,1.35,15,.56,6.25h0l1.56,17.34A15,15,0,0,1,108.38,142.83Z" style="fill: none;stroke: #000;stroke-miterlimit: 10;stroke-width: 3px"/>
      <path d="M117.08,83.57c20.8,7.84,42.92,24.11,4.86,53.92-.46.36-.92.72-1.4,1.08.06-.09.59-.84,1.31-2.09,3.49-6,11.76-23.16-2.85-31.65h0a27.2,27.2,0,0,0-4.22-2C109.83,101,103.12,100,94.14,100v14.66c0,4.54-7.33,6.8-11.61,3.6L50.94,94.57a4.25,4.25,0,0,1,0-7.21L82.53,63.72c4.28-3.21,11.61-.94,11.61,3.6V77.43a129.34,129.34,0,0,1,22.94,6.14Z" style="fill: #39c"/>
      <circle cx="95.81" cy="53.21" r="3.05" style="fill: #b3b3b3"/>
      <circle cx="57.86" cy="53.21" r="3.05" style="fill: #b3b3b3"/>
      <path d="M57.86,53.21s-6.79-41.61,19-41.61c0,0,18.93-2.45,18.93,41.61" style="fill: none;stroke: #000;stroke-miterlimit: 10;stroke-width: 3px"/>
    </g>
  </g>
</svg>
