<svg id="Layer_1" data-name="Layer 1" xmlns="http://www.w3.org/2000/svg" viewBox="0 0 158 158">
  <g>
    <path d="M158,79A79,79,0,1,1,9.2,42,79.08,79.08,0,0,1,79,0,79,79,0,0,1,158,79Z" transform="translate(0)" style="fill: #fff"/>
    <g>
      <g>
        <path d="M98,42.49v58a11.93,11.93,0,0,1-11.93,11.93h-58A11.93,11.93,0,0,1,16.15,100.5v-56a75.35,75.35,0,0,1,9.33-13.69,12.26,12.26,0,0,1,2.6-.28h58a11.93,11.93,0,0,1,11.73,9.73A12.16,12.16,0,0,1,98,42.49Z" transform="translate(0)" style="fill: #fff"/>
        <path d="M65,112.42H86.1A11.92,11.92,0,0,0,98,100.5V39.59s-.06.24-.21.7c-2,6.78-20.17,60.21-81.66,60.21a11.92,11.92,0,0,0,11.93,11.92H65Z" transform="translate(0)" style="fill: #ccc"/>
        <path d="M70,112.43h16A11.93,11.93,0,0,0,98,100.5v-58a12.16,12.16,0,0,0-.2-2.2,11.93,11.93,0,0,0-11.73-9.73h-58a12.26,12.26,0,0,0-2.6.28,11.94,11.94,0,0,0-9.33,11.65v58a11.93,11.93,0,0,0,11.93,11.93h1" transform="translate(0)" style="fill: none;stroke: #000;stroke-miterlimit: 10;stroke-width: 3px"/>
      </g>
      <path d="M136.63,110.6h1c6.48,0,11.73-5.95,11.73-13.28V79a14.47,14.47,0,0,0-2.65-8.42L134.17,53.3a11.26,11.26,0,0,0-9.07-4.87H109.75c-6.48,0-11.73,6-11.73,13.28V97.32" transform="translate(0)" style="fill: none;stroke: #000;stroke-miterlimit: 10;stroke-width: 3px"/>
      <circle cx="117.61" cy="111.01" r="15.27" style="fill: #fff;stroke: #000;stroke-miterlimit: 10;stroke-width: 3px"/>
      <circle cx="49.83" cy="113.83" r="15.27" style="fill: #fff;stroke: #000;stroke-miterlimit: 10;stroke-width: 3px"/>
      <line x1="148.51" y1="74.19" x2="119.44" y2="74.19" style="fill: none;stroke: #000;stroke-miterlimit: 10;stroke-width: 3px"/>
      <g>
        <circle cx="57.09" cy="68.91" r="20.48" style="fill: #39c"/>
        <path d="M45.28,69.12A31.12,31.12,0,0,1,50,70.35c.48.51.94,1,1.44,1.52l1.25,1.27s-.05,0-.06,0h0a0,0,0,0,0,0,0l.35-.38,2.82-3.09,5.64-6.17,2.82-3.08A36.8,36.8,0,0,1,68.89,59a37.59,37.59,0,0,1-1,4.77L65.1,66.89l-5.64,6.17-2.82,3.08-.36.39a5.27,5.27,0,0,1-.79.7,4.81,4.81,0,0,1-1.94.81,4.91,4.91,0,0,1-4-1c-.14-.11-.26-.23-.39-.35L49,76.48l-.36-.38-.73-.74c-.48-.51-1-1-1.48-1.48A31.6,31.6,0,0,1,45.28,69.12Z" transform="translate(0)" style="fill: #fff"/>
      </g>
    </g>
  </g>
</svg>
