<svg id="Layer_1" data-name="Layer 1" xmlns="http://www.w3.org/2000/svg" viewBox="0 0 136 101.43">
  <g>
    <g>
      <path d="M53.59,81.58h16A11.91,11.91,0,0,0,81.54,69.67V11.72a12.14,12.14,0,0,0-.2-2.19A11.92,11.92,0,0,0,69.63-.19H11.68A11.91,11.91,0,0,0-.23,11.72v58A11.91,11.91,0,0,0,11.68,81.58h1" transform="translate(1.73 1.69)" style="fill: #fff"/>
      <path d="M48.56,81.58H69.63A11.91,11.91,0,0,0,81.54,69.67V8.83s-.06.24-.2.7C79.28,16.3,61.19,69.67-.23,69.67A11.91,11.91,0,0,0,11.68,81.58H48.56Z" transform="translate(1.73 1.69)" style="fill: #ccc"/>
      <path d="M53.59,81.58h16A11.91,11.91,0,0,0,81.54,69.67V11.72a12.14,12.14,0,0,0-.2-2.19A11.92,11.92,0,0,0,69.63-.19H11.68A11.91,11.91,0,0,0-.23,11.72v58A11.91,11.91,0,0,0,11.68,81.58h1" transform="translate(1.73 1.69)" style="fill: none;stroke: #000;stroke-miterlimit: 10;stroke-width: 3px"/>
    </g>
    <path d="M120.11,79.76h.94c6.47,0,11.72-5.94,11.72-13.26V48.17a14.39,14.39,0,0,0-2.65-8.4L117.65,22.53a11.25,11.25,0,0,0-9.07-4.87H93.25c-6.47,0-11.71,5.94-11.71,13.26V66.5" transform="translate(1.73 1.69)" style="fill: none;stroke: #000;stroke-miterlimit: 10;stroke-width: 3px"/>
    <circle cx="102.84" cy="81.86" r="15.26" style="fill: #fff;stroke: #000;stroke-miterlimit: 10;stroke-width: 3px"/>
    <circle cx="35.14" cy="84.68" r="15.26" style="fill: #fff;stroke: #000;stroke-miterlimit: 10;stroke-width: 3px"/>
    <line x1="133.7" y1="45.07" x2="104.66" y2="45.07" style="fill: none;stroke: #000;stroke-miterlimit: 10;stroke-width: 3px"/>
    <g>
      <circle cx="42.38" cy="39.8" r="20.46" style="fill: #39c"/>
      <path d="M28.86,38.33a31.88,31.88,0,0,1,4.72,1.22c.48.51,1,1,1.44,1.52l1.25,1.27-.06,0,0,0h0l.35-.38,2.81-3.08L45,32.72l2.81-3.08a38.68,38.68,0,0,1,4.67-1.39,37.77,37.77,0,0,1-1,4.76L48.66,36.1,43,42.26l-2.82,3.08-.36.39a5.9,5.9,0,0,1-.79.7,5.11,5.11,0,0,1-1.94.81,4.93,4.93,0,0,1-4-1c-.14-.11-.27-.23-.4-.35l-.2-.21-.37-.38-.73-.74c-.47-.51-1-1-1.47-1.48A31.76,31.76,0,0,1,28.86,38.33Z" transform="translate(1.73 1.69)" style="fill: #fff"/>
    </g>
  </g>
</svg>
