<svg id="Layer_1" data-name="Layer 1" xmlns="http://www.w3.org/2000/svg" viewBox="0 0 85.37 101">
  <g>
    <g>
      <path d="M59.37,98H0L1.14,85.86a.49.49,0,0,0,0-.12L5.66,36.58v0l.93-10.17H65.21l.92,10.22L68,56.93l1,11.2.42,4.67h0l1.17,13A11.23,11.23,0,0,1,59.37,98Z" transform="translate(0.4 1.5)" style="fill: #fff"/>
      <path d="M71.59,97.19l-.07-.76c-.54.93-.93,1.49-1,1.56Z" transform="translate(0.4 1.5)" style="fill: #fff"/>
    </g>
    <path d="M59.37,98H0c3.2,0,6.28-.16,9.25-.42,32-2.84,50.41-19.21,57-26.25A38.48,38.48,0,0,0,69,68.13h0l.41,4.67h0l1.17,13A11.23,11.23,0,0,1,59.37,98Z" transform="translate(0.4 1.5)" style="fill: #ccc"/>
    <path d="M71.59,97.19l-.07-.76c-.54.93-.93,1.49-1,1.56Z" transform="translate(0.4 1.5)" style="fill: #ccc"/>
    <path d="M59.37,98h-47A11.22,11.22,0,0,1,1.14,85.86a.49.49,0,0,0,0-.12L5.66,36.58v0A11.23,11.23,0,0,1,16.85,26.37H54.94A11.22,11.22,0,0,1,66.13,36.59L68,56.93l1,11.2.42,4.67h0l1.17,13A11.23,11.23,0,0,1,59.37,98Z" transform="translate(0.4 1.5)" style="fill: none;stroke: #000;stroke-miterlimit: 10;stroke-width: 3px"/>
    <path d="M65.87,53.75c15.53,5.86,32,18,3.63,40.26l-1,.81c0-.07.44-.63,1-1.56C72,88.8,78.21,76,67.3,69.63h0a19,19,0,0,0-3.16-1.46C60.45,66.8,55.45,66,48.74,66V76.92c0,3.39-5.47,5.09-8.67,2.69L16.49,62a3.17,3.17,0,0,1,0-5.38L40.07,38.93c3.2-2.4,8.67-.7,8.67,2.69v7.54a97.58,97.58,0,0,1,17.13,4.59Z" transform="translate(0.4 1.5)" style="fill: #39c"/>
    <circle cx="50.38" cy="32.59" r="2.28" style="fill: #b3b3b3"/>
    <circle cx="22.05" cy="32.59" r="2.28" style="fill: #b3b3b3"/>
    <path d="M21.65,31.09S16.58,0,35.85,0C35.85,0,50-1.81,50,31.09" transform="translate(0.4 1.5)" style="fill: none;stroke: #000;stroke-miterlimit: 10;stroke-width: 3px"/>
  </g>
</svg>
